<svg id="Capa_1" enable-background="new 0 0 512.007 512.007" height="512" viewBox="0 0 512.007 512.007" width="512" xmlns="http://www.w3.org/2000/svg"><g><path d="m8.826 503.242c11.722 11.66 30.58 11.722 42.393-.029l54.033-54.033 10.717 10.714c5.859 5.859 15.352 5.859 21.211 0s5.859-15.352 0-21.211l-63.868-63.853c-5.859-5.859-15.352-5.859-21.211 0s-5.859 15.352 0 21.211l10.712 10.708-54.017 54.027c-11.755 11.785-11.711 30.756.03 42.466z"/><path d="m449.195 406.749 10.712-10.708c5.859-5.859 5.859-15.352 0-21.211s-15.352-5.859-21.211 0l-63.867 63.853c-5.859 5.859-5.859 15.352 0 21.211s15.352 5.859 21.211 0l10.717-10.714 54.033 54.033c11.812 11.752 30.67 11.689 42.393.029 11.741-11.71 11.785-30.681.029-42.466z"/><path d="m255.996 340.933-67.758 67.722c21.136 7.848 43.901 12.347 67.769 12.347 23.86 0 46.62-4.495 67.751-12.339z"/><path d="m148.253 62.532 107.75 108.704 107.756-108.706c-30.878-20.519-67.899-32.529-107.752-32.529s-76.876 12.011-107.754 32.531z"/><path d="m451.007 226.002c0-23.831-4.486-46.562-12.31-67.67l-97.808 97.755 77.631 77.598c20.494-30.863 32.487-67.86 32.487-107.683z"/><path d="m61.007 226.002c0 39.82 11.992 76.811 32.481 107.673l77.622-77.585-97.797-97.747c-7.821 21.106-12.306 43.833-12.306 67.659z"/><path d="m480.826 1.194c-5.684-2.402-12.129-1.099-16.465 3.208l-359.108 359.943 42.429 42.422 270.244-270.086c47.285-47.314 71.543-88.832 72.041-121.439.088-6.109-3.516-11.661-9.141-14.048z"/><path d="m406.758 364.349-87.096-87.056-42.444 42.418 87.111 87.06z"/><path d="m31.181 1.194c-5.625 2.388-9.229 7.939-9.141 14.048.498 32.607 24.756 74.125 72.041 121.439l98.258 98.199 42.444-42.427-187.137-188.051c-4.336-4.307-10.781-5.611-16.465-3.208z"/></g></svg>