<svg height="512" viewBox="0 0 512 512" width="512" xmlns="http://www.w3.org/2000/svg"><g id="filled_outline" data-name="filled outline"><path d="m291.029 70.412h33.941v475.176h-33.941z" fill="#fdb62f" transform="matrix(.707 -.707 .707 .707 -127.578 308)"/><path d="m224 248 24-24 32 32-8 40z" fill="#fda909"/><path d="m352 424h-208v48h16a45.979 45.979 0 0 1 33.2-3.085l11.065 3.161a62.376 62.376 0 0 0 51.735-8.076 62.376 62.376 0 0 0 51.735 8.076l11.065-3.161a45.979 45.979 0 0 1 33.2 3.085h16v-48z" fill="#592c02"/><path d="m11.147 399.029h169.706v33.941h-169.706z" fill="#a65a14" transform="matrix(.707 -.707 .707 .707 -266.039 189.726)"/><path d="m152 128-24 24" fill="#fdb62f"/><path d="m144 344 289.661-297.088a75.893 75.893 0 0 1 54.339-22.912l-320 344z" fill="#eaeaea"/><path d="m128 408h32v80h-32z" fill="#763a02"/><path d="m352 408h32v80h-32z" fill="#763a02"/><path d="m287.065 251.751 206.792-222.3a8 8 0 0 0 -5.857-13.451 84.365 84.365 0 0 0 -60.067 25.327l-173.423 177.873-96.853-96.853a8 8 0 0 0 -11.314 0l-24 24a8 8 0 0 0 0 11.314l33.257 33.257a52.719 52.719 0 0 0 -19.6 41.082h16a36.761 36.761 0 0 1 13.007-28.1l.524 1.048a52.727 52.727 0 0 1 2.88 40.519l15.178 5.06a68.886 68.886 0 0 0 3.275-28.352l32.779 32.779-75.715 77.657-10.271-10.271-11.314 11.314 10.343 10.346-114.343 114.343a8 8 0 0 0 0 11.314l24 24a8 8 0 0 0 11.314 0l66.343-66.343v60.686a8 8 0 0 0 8 8h32a8 8 0 0 0 8-8v-10.718a37.887 37.887 0 0 1 23-.676l11.066 3.163a70.282 70.282 0 0 0 53.934-6.384 70.255 70.255 0 0 0 53.933 6.384l11.067-3.163a37.882 37.882 0 0 1 23 .675v10.719a8 8 0 0 0 8 8h32a8 8 0 0 0 8-8v-60.686l66.343 66.343a8 8 0 0 0 11.314 0l24-24a8 8 0 0 0 0-11.314zm-127.751-79.751 12.686-12.686 8.686 8.686-12.686 12.687zm20 20 12.686-12.686 8.686 8.686-12.686 12.686zm-27.314-52.687 8.686 8.687-12.686 12.686-8.687-8.686zm47.314 72.687 12.686-12.686 31.34 31.339-12.526 12.847zm240.075-159.5a68.108 68.108 0 0 1 26.9-16.9l-298.497 320.879-12.549-12.55zm-391.389 424.187-12.687-12.687 108.687-108.687 12.686 12.687zm104 3.313h-16v-64h16zm164.6-18.778-11.065 3.162a54.293 54.293 0 0 1 -45.1-7.04 8 8 0 0 0 -8.876 0 54.292 54.292 0 0 1 -45.1 7.04l-11.059-3.162a53.861 53.861 0 0 0 -27.4-.6v-28.622h176v28.621a53.85 53.85 0 0 0 -27.4.601zm59.4 18.778h-16v-64h16zm-24-80a8 8 0 0 0 -8 8v8h-176v-8a8 8 0 0 0 -8-8h-12.686l20.686-20.686 10.343 10.343 11.314-11.314-10.544-10.543 73.914-79.458 111.659 111.658zm112 76.687-200.068-200.068 12.228-13.145 200.527 200.526z"/></g></svg>