<svg fill="#ffffff" height="512" viewBox="0 0 128 128" width="512" xmlns="http://www.w3.org/2000/svg"><g><path d="m64.25 53.4h1.957a1.75 1.75 0 0 0 0-3.5h-1.877l.7-4.608a1.75 1.75 0 1 0 -3.461-.523l-.71 4.686a3.431 3.431 0 0 0 3.391 3.945z"/><path d="m53 44.583a4.167 4.167 0 1 0 -4.167-4.166 4.171 4.171 0 0 0 4.167 4.166z"/><path d="m75 44.583a4.167 4.167 0 1 0 -4.167-4.166 4.171 4.171 0 0 0 4.167 4.166z"/><path d="m56.086 57.691a1.748 1.748 0 0 0 -.238 2.463 10.37 10.37 0 0 0 8.027 3.346 10.368 10.368 0 0 0 8.025-3.345 1.749 1.749 0 1 0 -2.7-2.224 6.987 6.987 0 0 1 -5.325 2.069 6.987 6.987 0 0 1 -5.326-2.07 1.751 1.751 0 0 0 -2.463-.239z"/><path d="m103.5 87.5c-5.211-1.3-10.3-1.249-16.437-1.888l-.476-.065c-2.194-.195-5.352-.8-6.5-3.835-.192.133-1.185-8.478-1.215-8.522a23.643 23.643 0 0 0 7.06-9.5 46.717 46.717 0 0 0 2.257-8.542c.047-.241.1-.476.146-.717a8.3 8.3 0 0 0 1.371.126 8.556 8.556 0 0 0 1.072-17.045v-8.222a18.964 18.964 0 0 0 -6.365-14.059 18.689 18.689 0 0 0 -12.013-4.712l.427-2.874a6.667 6.667 0 0 0 -6.595-7.645h-4.464a6.667 6.667 0 0 0 -6.593 7.646l.427 2.873a18.692 18.692 0 0 0 -12.117 4.81 19 19 0 0 0 -6.258 13.961v8.19a8.559 8.559 0 0 0 .823 17.078 8.439 8.439 0 0 0 1.613-.166c.05.254.1.5.154.757a46.765 46.765 0 0 0 2.258 8.551 23.635 23.635 0 0 0 7.059 9.5c-1.482 8.29.8 11.823-10.224 12.56l-4.72-7.266 4.443-2.894a1.75 1.75 0 0 0 .514-2.421l-.92-1.417a5.756 5.756 0 0 0 -7.954-1.691l-1.089.708-2.044-3.144-4.062-6.253-4.063-6.256-2.044-3.149.149-.1a1.75 1.75 0 0 0 .515-2.421l-1.32-2.032a4.752 4.752 0 0 0 -6.571-1.4l-7.581 4.909a4.746 4.746 0 0 0 -1.4 6.57l1.32 2.032a1.751 1.751 0 0 0 2.421.515l.149-.1 6.111 9.408 4.065 6.259 2.045 3.149-1.089.707a5.757 5.757 0 0 0 -1.69 7.955l.919 1.416a1.752 1.752 0 0 0 2.421.514l4.444-2.886 1 1.539a24.229 24.229 0 0 0 -16.192 22.8v15.439a1.749 1.749 0 0 0 1.757 1.75h111.112a1.75 1.75 0 0 0 1.75-1.75v-15.428a24.233 24.233 0 0 0 -17.806-23.322zm-99.973-32.844a1.245 1.245 0 0 1 .542-.788l7.572-4.918a1.23 1.23 0 0 1 .677-.2 1.314 1.314 0 0 1 .263.028 1.247 1.247 0 0 1 .788.541l.367.565-9.667 6.277-.369-.561a1.245 1.245 0 0 1 -.173-.944zm11.13 14.268 6.434-4.178 2.159 3.325-6.433 4.178zm-4.065-6.26 6.432-4.178 2.16 3.325-6.433 4.177zm-3-4.617 6.432-4.179 1.093 1.682-6.432 4.178zm12.224 18.819-1.092-1.682 6.432-4.178 1.093 1.682-3.216 2.089zm-2.816 8.611a2.251 2.251 0 0 1 .694-3.061l7.241-4.7 4.684-3.042 2.561-1.664a2.251 2.251 0 0 1 3.079.61l-4.442 2.885-4.684 3.042zm65.747 2.94-12.414 12.413-3.857-3.856 11.647-11.644a8.429 8.429 0 0 0 4.628 3.087zm.381-69.556a15.347 15.347 0 0 1 4.14 10.429v8.149h-1.551a1.666 1.666 0 0 1 -1.541-1.028l-5.3-12.72a1.67 1.67 0 0 1 .524-1.965zm11.632 27.139a5.066 5.066 0 0 1 -5.06 5.06 4.723 4.723 0 0 1 -.65-.045c.691-3.51 1.574-5.964 1.718-9.961a5.067 5.067 0 0 1 3.992 4.946zm-35.389-41.4a3.163 3.163 0 0 1 2.4-1.1h4.464a3.164 3.164 0 0 1 3.13 3.63l-.5 3.368h-9.727l-.5-3.367a3.16 3.16 0 0 1 .733-2.531zm-18.571 23.215a15.235 15.235 0 0 1 3.963-8.841l3.585 2.752a1.67 1.67 0 0 1 .524 1.965l-5.3 12.719a1.666 1.666 0 0 1 -1.541 1.029h-1.304v-8.149c0-.498.029-.99.073-1.475zm-2.75 23.243a5.06 5.06 0 0 1 -.821-10.053c-.1 2.14 1.125 7.342 1.712 9.973a5.09 5.09 0 0 1 -.891.08zm7.268 11.321a44.175 44.175 0 0 1 -2.067-7.907c-.691-4.3-2.243-8.41-2.514-13.533h1.3a5.157 5.157 0 0 0 4.772-3.182l5.3-12.72a5.173 5.173 0 0 0 -1.624-6.089l-3.023-2.32a15.2 15.2 0 0 1 8.558-2.628h15.959a15.2 15.2 0 0 1 8.426 2.543l-3.136 2.407a5.175 5.175 0 0 0 -1.624 6.089l5.3 12.72a5.157 5.157 0 0 0 4.772 3.182h1.545c-.1 3.807-1.761 9.25-2.513 13.533-.83 5.679-3.3 12.706-8.643 16.43a20.642 20.642 0 0 1 -12.106 4.023 21.143 21.143 0 0 1 -12.109-4.027 20.111 20.111 0 0 1 -6.573-8.521zm11.2 14.836a23.752 23.752 0 0 0 19.102-1.815l.739 5.792a7.55 7.55 0 0 0 .149.806l-12.508 12.502-12.513-12.51c.065-.265.116-.533.154-.8l.739-5.79a23.57 23.57 0 0 0 4.141 1.815zm-6.667 8.094 37.987 37.972 1.222 1.219h-7.716l-36.072-36.06a9.663 9.663 0 0 0 4.582-3.131zm-14.991.725a61.831 61.831 0 0 0 -8.434 1.014l-1.608-2.475 6.437-4.173 3.66 5.635zm-7.9 38.466v-8.694a1.75 1.75 0 0 0 -3.5 0v8.694h-13.266v-13.678a20.722 20.722 0 0 1 15.229-19.942c.191-.052.384-.095.576-.143 4.39-1.075 9.717-1.183 14.973-1.647l35.422 35.41zm90.845 0h-13.266v-8.694a1.75 1.75 0 0 0 -3.5 0v8.694h-7.028l-21.2-21.195 14.181-14.179c4.477.509 10.406.5 15.585 1.753a20.722 20.722 0 0 1 15.229 19.942z"/></g></svg>