<svg height="512" viewBox="0 0 128 128" width="512" xmlns="http://www.w3.org/2000/svg"><g><g><path d="m59.365 12.248a17.042 17.042 0 0 0 -17.042 17.042v11.278a22.226 22.226 0 0 0 .5 4.674l1.51 6.891c.787 3.611 1.316 7.465 2.709 10.9a21.929 21.929 0 0 0 40.606 0c1.393-3.437 1.922-7.291 2.709-10.9l1.51-6.891a22.226 22.226 0 0 0 .5-4.674v-11.278a17.042 17.042 0 0 0 -17.042-17.042z" fill="#ffd3b6"/><path d="m42.826 45.242a21.9 21.9 0 0 1 -.505-4.677v-1.307a6.9 6.9 0 0 0 -.926-.07 6.81 6.81 0 1 0 2.935 12.947z" fill="#ffbd99"/><g fill="#666068"><path d="m67.6 53.4h1.957a1.75 1.75 0 0 0 0-3.5h-1.882l.7-4.608a1.75 1.75 0 1 0 -3.461-.523l-.71 4.686a3.431 3.431 0 0 0 3.396 3.945z"/><path d="m60.512 40.417a4.167 4.167 0 1 0 -4.167 4.166 4.171 4.171 0 0 0 4.167-4.166z"/><path d="m78.345 36.25a4.167 4.167 0 1 0 4.167 4.167 4.171 4.171 0 0 0 -4.167-4.167z"/><path d="m72.545 57.931a6.987 6.987 0 0 1 -5.325 2.069 6.987 6.987 0 0 1 -5.326-2.07 1.749 1.749 0 1 0 -2.7 2.224 10.37 10.37 0 0 0 8.026 3.346 10.368 10.368 0 0 0 8.026-3.345 1.749 1.749 0 1 0 -2.7-2.224z"/></g><path d="m93.045 39.188a6.058 6.058 0 0 0 -.678.052v1.328a22.226 22.226 0 0 1 -.5 4.674l-1.51 6.891-.021.1a6.732 6.732 0 0 0 2.709.578 6.81 6.81 0 0 0 0-13.619z" fill="#ffbd99"/><path d="m83.965 126.25h-72.18v-15.43a22.447 22.447 0 0 1 16.52-21.63c5.39-1.47 11.11-1.31 16.66-1.93z" fill="#666068"/><path d="m52.7 82.8c-.919 2.144-3.477 4.383-7.513 4.445-.072.008-.146.013-.218.021l39 38.987h12.662l-43.809-43.797c-.044.112-.078.23-.122.344z" fill="#e57373"/><path d="m122.905 110.82v15.43h-26.27l-22.96-22.94 16.03-16.02.46.06c2.15.23 4.33.35 6.45.54a54.5 54.5 0 0 1 9.77 1.3 22.447 22.447 0 0 1 16.52 21.63z" fill="#666068"/><path d="m82.224 83.271a7.578 7.578 0 0 1 -.366-.805l-14.513 14.508 6.333 6.331 16.022-16.019c-2.622-.344-5.632-.605-7.476-4.015z" fill="#c15f5f"/><path d="m81.839 82.485a6.441 6.441 0 0 1 -.4-1.518l-1.1-8.576a21.855 21.855 0 0 1 -26 0l-1.1 8.576a6.655 6.655 0 0 1 -.405 1.512l14.5 14.5z" fill="#ffbd99"/><g fill="#666068"><path d="m60.974 12.248h12.742l.723-4.86a4.915 4.915 0 0 0 -4.862-5.638h-4.464a4.915 4.915 0 0 0 -4.862 5.638z"/><path d="m86.635 16.566c-.11.074-.223.139-.33.221l-4.625 3.55a3.42 3.42 0 0 0 -1.074 4.027l5.3 12.72a3.42 3.42 0 0 0 3.156 2.1h3.305v-9.9a16.983 16.983 0 0 0 -5.732-12.718z"/><path d="m52.76 20.337-4.625-3.55c-.061-.046-.125-.081-.186-.124a16.977 16.977 0 0 0 -5.626 12.627v9.9h3.055a3.42 3.42 0 0 0 3.156-2.1l5.3-12.72a3.42 3.42 0 0 0 -1.074-4.033z"/></g><path d="m30.305 115.81v10.44h-3.5v-10.44a1.75 1.75 0 0 1 3.5 0z" fill="#8b818e"/><path d="m107.885 115.81v10.44h-3.5v-10.44a1.75 1.75 0 0 1 3.5 0z" fill="#8b818e"/><g><path d="m20.09 80.948 14.482-9.406a4 4 0 0 1 5.528 1.176l.92 1.416-21.185 13.766-.92-1.417a4 4 0 0 1 1.175-5.535z" fill="#9dc6fb"/><path d="m32.015 73.2-9.37 6.09-2.04-3.15-1.91-2.94-2.16-3.32-1.91-2.94-2.16-3.32-1.9-2.94-2.05-3.15 9.37-6.08 2.05 3.15 1.9 2.93 2.16 3.33 1.91 2.93 2.16 3.33 1.9 2.93z" fill="#8b818e"/><path d="m6.461 52.4 7.571-4.917a3 3 0 0 1 4.15.882l1.318 2.035-12.6 8.182-1.321-2.032a3 3 0 0 1 .882-4.15z" fill="#9dc6fb"/><g fill="#c6c1c8"><g><path d="m28.065 67.12-9.37 6.08 1.91 2.94 9.36-6.09z"/><path d="m23.995 60.86-9.37 6.08 1.91 2.94 9.37-6.09z"/><path d="m19.935 54.6-9.37 6.08 1.9 2.94 9.37-6.09z"/></g><path d="m41.35 87.576-6.236-9.6-3.935 2.555-5.433 3.529 3.23 4.975a72.4 72.4 0 0 1 12.374-1.459z"/></g></g></g><g><path d="m66.906 43.3a1.747 1.747 0 0 0 -1.992 1.469l-.71 4.686a3.431 3.431 0 0 0 3.396 3.945h1.957a1.75 1.75 0 0 0 0-3.5h-1.88l.7-4.608a1.75 1.75 0 0 0 -1.471-1.992z"/><path d="m56.347 36.25a4.167 4.167 0 1 0 4.167 4.167 4.171 4.171 0 0 0 -4.167-4.167z"/><path d="m82.514 40.417a4.167 4.167 0 1 0 -4.167 4.166 4.172 4.172 0 0 0 4.167-4.166z"/><path d="m67.222 63.5a10.371 10.371 0 0 0 8.026-3.345 1.749 1.749 0 1 0 -2.7-2.224 6.987 6.987 0 0 1 -5.326 2.069 6.987 6.987 0 0 1 -5.322-2.07 1.749 1.749 0 1 0 -2.7 2.224 10.373 10.373 0 0 0 8.022 3.346z"/><path d="m68.919 113.682a1.75 1.75 0 0 0 2.475-2.475l-4.351-4.349a1.75 1.75 0 1 0 -2.475 2.475z"/><path d="m106.849 87.5c-3.955-1.039-10.674-1.341-17.226-1.994-1.845-.108-5.909-1.252-6.444-4.765l-.968-7.567a23.885 23.885 0 0 0 3.507-3.488 1.75 1.75 0 1 0 -2.718-2.205c-2.743 3.233-8.5 7.607-15.656 7.446a20.681 20.681 0 0 1 -18.678-12.549 44.048 44.048 0 0 1 -2.067-7.9c-.207-1.14-1.477-6.948-2.061-9.606a20.454 20.454 0 0 1 -.453-3.93h1.3a5.151 5.151 0 0 0 4.77-3.182l5.3-12.719a5.173 5.173 0 0 0 -1.624-6.09l-3.031-2.323a15.2 15.2 0 0 1 8.567-2.628h15.96a15.2 15.2 0 0 1 8.426 2.543l-3.136 2.407a5.173 5.173 0 0 0 -1.624 6.089l5.3 12.719a5.152 5.152 0 0 0 4.77 3.183h1.546c-.169 3.935-1.509 8.179-2.509 13.536-.271 1.372-.55 2.79-.886 4.145a1.75 1.75 0 1 0 3.4.84c.355-1.437.643-2.9.921-4.308.048-.243.1-.48.148-.722a8.283 8.283 0 0 0 1.371.126 8.556 8.556 0 0 0 1.072-17.045v-8.223c-.035-3.967-1.63-10.144-6.365-14.059a18.692 18.692 0 0 0 -12.01-4.712l.429-2.874a6.667 6.667 0 0 0 -6.601-7.645h-4.464a6.666 6.666 0 0 0 -6.593 7.646l.428 2.873a18.866 18.866 0 0 0 -16.75 11.168c-.4 1.565-1.241 1.8-1.622 7.6v8.19a8.559 8.559 0 0 0 .822 17.081 8.439 8.439 0 0 0 1.613-.166c.05.255.105.5.155.76a46.7 46.7 0 0 0 2.255 8.548 23.617 23.617 0 0 0 7.058 9.5l-.962 7.534c-1.3 3.387-2.557 4.663-9.262 5.026l-4.72-7.266 4.443-2.894a1.751 1.751 0 0 0 .515-2.421l-.92-1.418a5.76 5.76 0 0 0 -7.954-1.69l-1.089.708-2.044-3.146-8.134-12.521-2.046-3.15.15-.1a1.75 1.75 0 0 0 .515-2.421l-1.32-2.032a4.755 4.755 0 0 0 -6.571-1.4l-7.572 4.924a4.749 4.749 0 0 0 -1.4 6.57l1.32 2.032c.554.441 1.021 1.312 2.57.418l2.05 3.147 8.128 12.513v.007l2.044 3.145-1.089.707a5.757 5.757 0 0 0 -1.691 7.955l.92 1.416a1.752 1.752 0 0 0 2.421.514l4.443-2.886 1 1.539a24.229 24.229 0 0 0 -16.192 22.8v15.44a1.749 1.749 0 0 0 1.75 1.75h111.116a1.749 1.749 0 0 0 1.75-1.75v-15.428a24.233 24.233 0 0 0 -17.801-23.322zm-54.628-63.809-5.3 12.721a1.665 1.665 0 0 1 -1.54 1.027h-1.306v-8.149a15.4 15.4 0 0 1 4.037-10.316l3.588 2.752a1.668 1.668 0 0 1 .521 1.965zm35.3 12.72-5.3-12.721a1.666 1.666 0 0 1 .524-1.964l3.732-2.865a15.336 15.336 0 0 1 4.142 10.429v8.149h-1.556a1.665 1.665 0 0 1 -1.54-1.028zm10.585 9.589a5.065 5.065 0 0 1 -5.059 5.06 4.737 4.737 0 0 1 -.651-.045c.953-5.173 1.212-3.468 1.718-9.961a5.066 5.066 0 0 1 3.992 4.946zm-35.388-41.4a3.158 3.158 0 0 1 2.4-1.1h4.464a3.166 3.166 0 0 1 3.132 3.63l-.5 3.368h-9.729l-.5-3.367a3.161 3.161 0 0 1 .733-2.531zm-21.318 46.458a5.06 5.06 0 0 1 -.82-10.053c.03 2.975.914 6.244 1.712 9.973a5.1 5.1 0 0 1 -.892.08zm-34.522 3.6a1.244 1.244 0 0 1 .541-.788l7.571-4.918a1.251 1.251 0 0 1 1.73.367l.366.565-9.67 6.277-.367-.561a1.242 1.242 0 0 1 -.174-.944zm79.222 33.759-12.419 12.413-3.859-3.856 11.648-11.644a8.432 8.432 0 0 0 4.63 3.087zm-26.258-11.211a24.56 24.56 0 0 0 7.5 1.221 24.2 24.2 0 0 0 7.465-1.206 23.486 23.486 0 0 0 4.148-1.836l.742 5.806a7.9 7.9 0 0 0 .148.806l-12.498 12.503-12.512-12.51c.064-.265.116-.533.153-.8l.74-5.791a23.493 23.493 0 0 0 4.114 1.807zm-41.837-8.282 6.433-4.178 2.162 3.325-6.432 4.177zm-4.067-6.26 6.433-4.178 2.16 3.325-6.431 4.177zm-3-4.617 6.433-4.179 1.093 1.682-6.433 4.178zm12.226 18.819-1.093-1.682 6.429-4.178 1.1 1.682-3.22 2.089zm-2.812 8.611a2.248 2.248 0 0 1 .694-3.061l7.241-4.7 4.684-3.042 2.553-1.658a2.251 2.251 0 0 1 3.079.61l-4.441 2.885-4.684 3.042zm14.248-5.077 3.66 5.635h-.053a61.8 61.8 0 0 0 -8.432 1.014l-1.608-2.475 3.216-2.089zm50.09 44.1-6.283-6.282a1.749 1.749 0 0 0 -2.474 2.474l3.808 3.808h-49.432v-8.694a1.75 1.75 0 0 0 -3.5 0v8.694h-13.268v-13.678a20.723 20.723 0 0 1 15.228-19.942c5.776-1.293 7.418-1.095 15.54-1.8l13.247 13.242a1.749 1.749 0 1 0 2.474-2.474l-11.41-11.407a9.678 9.678 0 0 0 4.58-3.131l39.2 39.19zm36.463 0h-13.267v-8.694a1.75 1.75 0 0 0 -3.5 0v8.694h-7.029l-21.2-21.195 14.182-14.179c4.478.508 10.405.5 15.586 1.753a20.722 20.722 0 0 1 15.228 19.942z"/></g></g></svg>